<svg version="1.1" id="Layer_1" xmlns="http://www.w3.org/2000/svg" xmlns:xlink="http://www.w3.org/1999/xlink" x="0px" y="0px"
	 width="100%" viewBox="0 0 2500 832" enable-background="new 0 0 2500 832" xml:space="preserve">
<path fill="#31C48D" opacity="1.000000" stroke="none" 
	d="
M1604.000000,833.000000 
	C1069.333374,833.000000 535.166809,833.000000 1.000143,833.000000 
	C1.000096,555.666748 1.000096,278.333527 1.000048,1.000218 
	C834.333191,1.000145 1667.666382,1.000145 2500.999512,1.000073 
	C2500.999756,278.333099 2500.999756,555.666199 2501.000000,832.999634 
	C2202.166748,833.000000 1903.333374,833.000000 1604.000000,833.000000 
M2136.875244,769.348938 
	C2147.507324,766.736267 2158.428955,764.951416 2168.718018,761.357117 
	C2200.708984,750.181763 2226.052002,729.351685 2248.496826,704.586182 
	C2277.997314,672.035461 2301.440186,635.299438 2322.994873,597.228760 
	C2324.315430,594.896606 2326.902588,592.767700 2329.395508,591.699524 
	C2342.093750,586.258484 2355.005859,581.318604 2367.748535,575.978149 
	C2391.362305,566.081665 2411.285156,551.255249 2428.084717,531.836487 
	C2453.172363,502.837585 2469.833984,469.000275 2485.478516,434.504211 
	C2485.956543,433.449493 2486.765625,432.104858 2486.463623,431.223267 
	C2485.720459,429.054077 2484.839844,426.521301 2483.166992,425.250854 
	C2482.303223,424.594940 2479.174072,425.843536 2477.890869,427.083069 
	C2476.160156,428.755280 2475.164062,431.215759 2473.952148,433.393402 
	C2462.941162,453.181641 2452.302490,473.186829 2440.882568,492.735718 
	C2418.119629,531.701721 2384.075928,556.454102 2341.484131,570.073853 
	C2340.141357,570.503296 2338.738281,570.744446 2336.832764,571.200256 
	C2337.367432,569.486267 2337.675293,568.405823 2338.040283,567.345093 
	C2349.036621,535.386047 2359.635742,503.282928 2371.149170,471.511261 
	C2383.281250,438.033051 2396.009033,404.762238 2409.031006,371.618683 
	C2415.410156,355.381317 2425.746582,341.722931 2439.980957,331.278442 
	C2440.158203,331.148346 2440.121582,330.727020 2440.202393,330.361206 
	C2426.597168,330.361206 2412.978760,329.784973 2399.437012,330.556030 
	C2389.791260,331.105225 2383.003174,336.967712 2378.808105,345.859741 
	C2374.048828,355.947144 2369.041992,365.922211 2363.951660,375.848206 
	C2341.508545,419.613403 2317.864014,462.686493 2287.925781,501.901093 
	C2279.759521,512.598022 2270.643555,522.623169 2261.381348,532.405579 
	C2257.344482,536.669006 2252.188965,540.227356 2246.930176,542.905273 
	C2236.118652,548.410828 2225.058594,542.849060 2222.240967,531.044495 
	C2221.587402,528.306030 2221.257324,525.461487 2221.066406,522.646240 
	C2220.117920,508.679169 2225.066406,496.017365 2230.601074,483.724487 
	C2250.432617,439.675995 2271.443604,396.184784 2295.791748,354.430359 
	C2299.771973,347.604858 2306.487793,342.336334 2312.138916,336.543060 
	C2314.254883,334.373657 2316.940674,332.759827 2319.984863,330.416840 
	C2303.553223,330.416840 2288.117188,329.984619 2272.722412,330.594452 
	C2264.711914,330.911804 2258.091553,335.233398 2254.258057,342.630676 
	C2237.024658,375.886078 2219.927246,409.212006 2202.713623,442.477753 
	C2195.444580,456.525085 2188.319824,470.660645 2180.574219,484.444122 
	C2170.385498,502.574829 2157.393555,518.623901 2142.197754,532.823364 
	C2135.441406,539.136597 2127.838867,544.238098 2118.725098,546.599915 
	C2109.176514,549.074280 2108.819336,548.888977 2106.890381,539.471619 
	C2103.314697,522.014709 2097.851318,505.378876 2087.089355,490.816223 
	C2086.163818,489.564209 2086.425293,486.710785 2087.161621,485.058990 
	C2124.088623,402.251312 2164.722168,321.325409 2211.049072,243.345673 
	C2231.302002,209.254684 2251.881592,175.319763 2279.404785,146.313766 
	C2279.555420,146.154938 2279.423340,145.727783 2279.423340,145.651382 
	C2272.513672,144.592636 2265.643066,143.557785 2258.778320,142.484497 
	C2242.166260,139.887238 2227.281494,143.627396 2216.151123,156.509247 
	C2209.026611,164.755020 2202.560059,173.895676 2197.479492,183.522232 
	C2179.604980,217.388885 2161.858154,251.348999 2145.169434,285.809631 
	C2118.034912,341.839478 2091.784180,398.297272 2065.123779,454.557068 
	C2062.771729,459.520477 2060.027588,464.298981 2057.702881,469.274231 
	C2056.413086,472.034119 2054.748291,473.051056 2051.586182,473.030548 
	C2048.542480,473.010864 2045.197021,473.630157 2042.495483,474.986938 
	C2032.139038,480.188019 2024.902954,488.157074 2022.984009,499.958801 
	C2022.025269,505.856323 2021.791748,511.868591 2021.038818,517.804688 
	C2020.825317,519.487061 2020.400024,521.553284 2019.288574,522.647949 
	C2006.579224,535.165344 1992.121826,544.583496 1974.111206,547.584595 
	C1951.897827,551.286133 1937.198853,541.744568 1933.584473,519.731628 
	C1930.197021,499.100586 1933.547729,478.899170 1940.905640,459.403076 
	C1941.333740,458.268646 1943.159668,457.254303 1944.510864,456.940399 
	C1955.031616,454.496735 1965.717529,452.684448 1976.123169,449.838989 
	C2006.565063,441.514587 2032.098999,425.368652 2052.126709,400.803528 
	C2062.316406,388.305420 2069.516113,374.463654 2071.598633,358.219452 
	C2073.505371,343.347717 2067.733643,332.575867 2054.156250,326.244202 
	C2045.273315,322.101715 2035.918945,320.882050 2026.338379,322.501678 
	C2002.389038,326.550354 1982.248169,338.410645 1964.585083,354.416534 
	C1938.051392,378.460785 1919.536621,408.072662 1906.214844,441.144012 
	C1902.681641,449.915375 1898.774292,458.591339 1894.313232,466.922607 
	C1883.768799,486.615234 1872.700806,506.076599 1857.968262,523.002136 
	C1852.469727,529.318970 1846.057983,535.325806 1838.951904,539.647522 
	C1827.603027,546.549438 1818.270386,540.760803 1817.943726,527.568359 
	C1817.853638,523.927124 1817.896118,520.150085 1818.741211,516.643372 
	C1821.115479,506.788849 1823.383057,496.850006 1826.692505,487.290527 
	C1836.035156,460.303497 1849.501709,435.172150 1862.244995,409.704987 
	C1869.456665,395.292450 1875.875977,380.463715 1882.143677,365.607849 
	C1884.749634,359.431152 1884.550537,352.713318 1882.421875,345.867493 
	C1852.074585,349.312592 1822.074341,349.848022 1791.233398,348.649872 
	C1797.189087,343.493744 1802.641846,339.176086 1807.626099,334.372162 
	C1817.392456,324.959015 1825.144653,314.159363 1827.504150,300.451599 
	C1829.612793,288.201111 1828.296509,276.406494 1820.082031,266.396271 
	C1810.600830,254.842606 1794.801147,257.067108 1788.966797,270.700043 
	C1787.668091,273.734741 1786.731934,276.994537 1786.120483,280.243256 
	C1772.467163,352.785675 1747.619629,421.168976 1709.396851,484.413818 
	C1700.124878,499.755646 1689.388184,514.272644 1678.559448,528.589966 
	C1672.348511,536.801636 1663.694092,542.459045 1653.255371,544.514954 
	C1637.187134,547.679749 1627.442383,539.474548 1628.070435,523.228760 
	C1628.547852,510.882690 1632.518311,499.379822 1637.317017,488.155365 
	C1652.436035,452.791351 1667.616943,417.453796 1682.793457,382.114410 
	C1687.259399,371.715393 1692.066895,361.452911 1696.204224,350.925964 
	C1699.616943,342.242920 1696.883057,336.654388 1688.185303,336.218567 
	C1673.153442,335.465424 1658.056763,336.009735 1642.299438,336.009735 
	C1643.869263,338.606506 1645.006714,340.579254 1646.230835,342.496704 
	C1650.702515,349.500977 1651.158936,357.024475 1648.275024,364.543091 
	C1632.652344,405.273895 1617.016235,445.972321 1595.154297,483.977173 
	C1585.054321,501.534851 1572.337524,516.767212 1557.947876,530.725525 
	C1548.953491,539.450256 1538.091431,544.051697 1525.265869,542.817871 
	C1513.730469,541.708008 1504.213257,537.345764 1498.345825,525.824219 
	C1499.904419,524.531860 1501.412964,523.468018 1502.702759,522.184387 
	C1533.827026,491.209320 1556.353027,455.144318 1566.411621,412.087128 
	C1570.990845,392.485291 1570.871460,372.667419 1563.820312,353.464111 
	C1558.758423,339.678467 1549.034790,330.374542 1534.463623,327.604889 
	C1527.054688,326.196625 1519.162964,325.865204 1511.665283,326.675110 
	C1493.206421,328.669128 1477.591431,337.653107 1463.185425,348.797394 
	C1433.302368,371.914612 1410.877319,400.965088 1396.026978,435.624268 
	C1387.515381,455.489410 1376.752930,473.987579 1364.812134,491.870056 
	C1355.536743,505.760742 1345.341187,518.927673 1332.612793,529.916321 
	C1324.660889,536.781311 1315.306763,540.436279 1304.952881,541.519531 
	C1296.750366,542.377686 1291.334595,539.144836 1287.448364,531.842468 
	C1281.806885,521.242249 1282.868774,510.222717 1285.314453,499.174438 
	C1290.029297,477.876617 1294.844971,456.599854 1299.860718,435.371552 
	C1300.499146,432.669525 1302.078003,429.771851 1304.081787,427.872833 
	C1335.349243,398.241119 1362.436646,365.205994 1384.693604,328.338837 
	C1388.271606,322.412018 1391.886963,320.029083 1398.771484,320.513489 
	C1408.224365,321.178558 1417.760498,320.764557 1427.258545,320.636047 
	C1431.852173,320.573914 1434.335938,317.392578 1434.290649,312.193298 
	C1434.249756,307.509552 1432.591187,305.975555 1427.421509,305.938660 
	C1422.921753,305.906555 1418.421753,305.931793 1413.921875,305.931732 
	C1408.725464,305.931702 1403.528931,305.931732 1397.660278,305.931732 
	C1400.938965,299.511444 1403.931396,294.133087 1406.490723,288.555939 
	C1416.898438,265.876343 1427.746338,243.372620 1437.271362,220.324432 
	C1442.562378,207.521805 1444.583984,193.649963 1442.125977,179.604584 
	C1438.719849,160.140457 1422.804688,152.234695 1405.236328,161.328003 
	C1394.015259,167.135971 1383.854370,174.489304 1376.238159,184.636108 
	C1368.552002,194.876038 1360.553955,205.097504 1354.498169,216.302872 
	C1339.464844,244.119797 1325.339355,272.432220 1311.179688,300.711121 
	C1309.143066,304.778503 1307.067017,306.190735 1302.611694,306.044556 
	C1291.956787,305.695068 1281.282349,305.905853 1270.616089,305.942047 
	C1265.164917,305.960571 1262.510864,308.817566 1262.645630,314.360199 
	C1262.764893,319.267914 1264.502808,320.669891 1270.562256,320.677094 
	C1280.690918,320.689087 1290.819580,320.680359 1301.749146,320.680359 
	C1300.787598,323.202911 1300.067627,325.003876 1299.411011,326.827667 
	C1287.401611,360.181396 1274.937622,393.382324 1263.638062,426.974945 
	C1259.475830,439.349060 1255.151978,451.440704 1248.576660,462.702301 
	C1239.342285,478.518005 1230.780029,494.774353 1220.728516,510.051575 
	C1209.852661,526.581726 1195.886597,540.126770 1176.310425,546.345947 
	C1168.484253,548.832336 1160.585083,548.762634 1151.900391,546.828247 
	C1155.743042,543.694153 1158.995239,541.361023 1161.881226,538.639526 
	C1205.085083,497.899567 1204.500488,466.927490 1190.100464,429.281250 
	C1184.636963,414.997833 1177.590332,401.328003 1171.783081,387.166229 
	C1164.093384,368.414032 1163.478638,349.088501 1170.114746,330.009888 
	C1176.846802,310.655060 1192.427490,303.786957 1211.171265,310.888214 
	C1214.683960,312.218994 1218.114258,312.955383 1220.162354,308.710815 
	C1222.090820,304.714355 1219.460938,302.351868 1216.551514,300.526337 
	C1209.584473,296.155090 1201.881470,294.304565 1193.681396,294.605804 
	C1179.057373,295.142914 1167.780396,302.420593 1158.077026,312.626587 
	C1146.794922,324.493134 1139.298340,338.771729 1132.119019,353.315826 
	C1114.433960,389.143555 1096.466309,424.831665 1078.653564,460.596466 
	C1076.471436,464.977692 1074.250977,468.924530 1068.750488,470.076141 
	C1066.506226,470.545990 1064.383911,472.507080 1062.621948,474.217896 
	C1053.885742,482.700653 1048.824097,492.827911 1048.917358,505.295532 
	C1048.934937,507.631409 1048.506348,510.438080 1047.195190,512.231934 
	C1042.582886,518.542297 1037.802612,524.788635 1032.510010,530.528198 
	C1026.214355,537.355286 1018.639893,542.497131 1009.296936,544.432556 
	C992.992432,547.809998 983.116638,539.580688 983.762390,523.128845 
	C984.240906,510.937531 988.099487,499.606537 992.832764,488.530945 
	C1006.049377,457.604187 1019.287903,426.686768 1032.568237,395.787323 
	C1038.812622,381.258240 1045.326172,366.842987 1051.426270,352.254272 
	C1055.442383,342.649170 1052.929077,336.703796 1043.722046,336.214111 
	C1028.710693,335.415710 1013.625854,335.998535 997.889038,335.998535 
	C999.509705,338.636383 1000.681213,340.595642 1001.903259,342.522858 
	C1006.468140,349.721405 1006.449585,357.348755 1003.776550,365.090454 
	C1002.039185,370.122314 999.822083,374.986328 997.976807,379.983490 
	C983.645264,418.794556 967.408691,456.688660 945.190674,491.790314 
	C933.581726,510.130920 921.679382,528.274292 905.880920,543.313110 
	C899.558472,549.331543 892.468201,554.971130 884.808350,559.062317 
	C871.401611,566.222961 858.011597,561.096497 851.489197,547.299072 
	C849.805603,543.737488 848.652893,539.789490 848.009338,535.894592 
	C844.881897,516.965332 847.909790,498.352509 851.587097,479.851135 
	C860.176392,436.636841 873.863953,394.857513 887.267395,352.983765 
	C889.544434,345.869904 892.372009,341.649536 900.341980,342.560272 
	C902.113586,342.762726 903.976929,342.207703 905.793213,341.965149 
	C920.565552,339.992432 935.039612,336.854767 948.267578,329.688354 
	C952.619385,327.330750 956.574036,324.186157 960.493896,321.124298 
	C961.431824,320.391693 962.183472,318.265503 961.779053,317.300781 
	C961.389404,316.371216 959.331726,315.543640 958.116333,315.676086 
	C955.166870,315.997528 952.246887,316.782410 949.375061,317.593079 
	C932.329102,322.404938 914.880005,321.505676 897.002808,321.950378 
	C897.696533,319.718903 898.146057,318.143494 898.673645,316.594696 
	C919.029053,256.841705 945.242004,199.708405 975.599548,144.421097 
	C989.082703,119.865685 1003.233521,95.743629 1020.572815,73.645515 
	C1026.045532,66.670677 1031.774780,60.001747 1040.071045,56.094456 
	C1041.781006,55.289146 1043.047485,53.542103 1044.518433,52.229122 
	C1044.319214,51.709328 1044.119995,51.189533 1043.920776,50.669739 
	C1040.679321,50.519478 1037.333008,49.770287 1034.213379,50.316166 
	C1013.997131,53.853569 995.070190,60.230171 981.137878,76.509178 
	C975.942505,82.579666 970.373413,88.465569 966.081604,95.146683 
	C956.279419,110.405693 946.343933,125.674004 937.911011,141.700668 
	C907.947876,198.645187 882.267944,257.541565 859.767029,317.815826 
	C858.340027,321.638367 856.603149,322.812683 852.569641,322.547943 
	C830.290588,321.085571 807.997803,319.809235 785.699646,318.665588 
	C735.784668,316.105530 685.863647,313.662689 635.945557,311.162079 
	C634.727051,311.101044 633.514343,310.922729 631.948486,310.763458 
	C632.653442,308.894897 633.181152,307.510895 633.698425,306.122986 
	C644.863159,276.169800 655.563721,246.033295 667.304626,216.307693 
	C682.894958,176.836395 699.320129,137.695145 715.309326,98.380646 
	C716.740601,94.861351 718.839661,93.534790 722.734009,93.314896 
	C742.486145,92.199554 760.407043,85.270889 777.064453,74.966423 
	C785.600830,69.685699 792.529419,62.798859 795.443237,52.756207 
	C800.193481,36.383965 792.854675,25.013323 776.018860,23.689575 
	C762.164551,22.600256 749.120911,25.794455 739.734619,36.692562 
	C729.106628,49.032352 719.284424,62.080994 709.452026,75.078743 
	C707.428711,77.753555 705.633911,79.131645 702.308044,79.288116 
	C695.488831,79.608925 688.697632,80.500214 681.879333,80.869110 
	C628.803711,83.740753 575.796265,87.041687 523.005432,93.827278 
	C478.816040,99.507263 437.266479,112.064941 398.197418,133.642288 
	C353.358398,158.406235 325.986847,195.621582 315.497009,245.483871 
	C310.588684,268.815063 309.836243,291.767944 318.906464,314.730835 
	C341.504425,371.941772 399.256927,396.036652 453.186371,373.910095 
	C485.276764,360.743835 504.927643,335.655090 518.113342,304.741547 
	C527.193176,283.454041 525.680725,262.127380 516.901001,241.117233 
	C515.865845,238.640060 513.986755,235.964951 511.752899,234.720215 
	C510.081787,233.789078 507.054932,234.643936 504.975006,235.519226 
	C504.409271,235.757294 504.450287,239.341156 505.299835,240.719498 
	C509.741211,247.925385 511.151978,255.921509 509.678741,263.835602 
	C504.638824,290.910034 496.235748,316.811829 479.289093,339.083160 
	C468.654724,353.058807 454.793579,362.578033 437.489746,366.412048 
	C418.056122,370.717987 399.021790,370.281860 382.862701,357.007446 
	C366.511353,343.575073 356.574768,325.987427 354.895050,304.671997 
	C353.067657,281.482971 358.112915,259.282013 366.791687,237.862930 
	C385.585876,191.479370 416.092407,156.636215 462.677887,135.748123 
	C500.532471,118.774818 540.222717,110.798836 580.875183,106.147430 
	C608.676392,102.966446 636.592773,100.791405 664.458801,98.178207 
	C675.214050,97.169601 685.972290,96.192978 697.013794,95.175552 
	C696.764526,96.101883 696.698242,96.764633 696.420410,97.321877 
	C662.004028,166.346970 630.194885,236.545990 601.273010,308.054474 
	C600.692871,309.488861 598.237305,310.941162 596.584961,311.028442 
	C590.103210,311.370941 583.553162,310.706604 577.100403,311.257904 
	C559.483704,312.763031 545.104980,320.897430 533.728210,334.198608 
	C530.864685,337.546478 528.119019,342.250214 531.100037,346.513336 
	C534.241821,351.006470 539.109192,348.389374 543.019470,346.917084 
	C550.335571,344.162354 557.400574,340.741730 564.711365,337.970978 
	C572.797302,334.906525 581.199707,333.276123 590.410889,333.576782 
	C589.804382,335.468445 589.433044,336.881500 588.905823,338.233704 
	C576.966675,368.856140 562.955078,398.476501 546.118652,426.733276 
	C497.704620,507.987183 431.506012,568.974976 343.113647,604.535034 
	C290.590515,625.664978 236.705521,637.808350 179.606827,629.070190 
	C144.105133,623.637146 111.073257,612.358643 82.390923,590.133789 
	C63.807068,575.733826 49.665504,557.895508 41.758377,535.570923 
	C24.451855,486.708618 32.879948,416.418640 88.527855,369.980011 
	C92.822121,366.396423 98.068375,363.956604 102.857208,360.961273 
	C104.960732,359.645599 107.276634,358.533630 109.047211,356.855530 
	C111.318306,354.703033 110.953911,352.505585 107.618057,351.906525 
	C105.035316,351.442719 102.062851,350.813324 99.747719,351.629944 
	C92.593468,354.153473 85.086639,356.416840 78.773399,360.439545 
	C63.047211,370.460052 49.950760,383.543396 38.797024,398.500366 
	C30.243601,409.970367 23.881706,422.560333 20.366968,436.466217 
	C14.239399,460.709686 11.086555,485.286957 14.029287,510.261322 
	C19.409313,555.920593 38.472870,594.359863 75.132980,623.095886 
	C90.140129,634.859192 106.325783,644.915466 124.063461,651.952148 
	C183.534576,675.544861 244.701263,680.032349 307.079437,666.389404 
	C373.711395,651.816040 430.608002,618.792114 478.831604,571.333252 
	C545.232483,505.985443 593.031189,428.556366 623.526245,340.524902 
	C625.141235,335.862793 627.215820,334.683746 631.928772,334.874054 
	C704.023621,337.785431 776.126343,340.501129 848.226196,343.289551 
	C849.282898,343.330444 850.326294,343.714996 851.640442,343.995636 
	C850.829346,346.291962 850.158630,348.166443 849.504333,350.046661 
	C841.462097,373.156586 833.227783,396.201904 825.425781,419.392670 
	C812.491882,457.837463 804.284119,497.070251 805.067200,537.963318 
	C805.677673,569.843567 830.841797,591.608582 862.265015,586.559387 
	C881.212830,583.514709 896.234924,573.361023 909.511230,560.278564 
	C924.882874,545.131409 938.129944,528.232910 949.608276,509.952881 
	C950.442505,508.624329 951.365723,507.351685 952.994751,504.952728 
	C952.994751,509.892487 952.796814,513.510437 953.027222,517.100952 
	C954.408691,538.628235 967.504517,554.941406 986.302612,558.689758 
	C999.278015,561.277039 1011.846497,559.875854 1022.716187,552.262207 
	C1031.518433,546.096741 1039.368286,538.556763 1047.505005,531.470703 
	C1048.779297,530.360901 1049.330811,528.421082 1050.216675,526.865051 
	C1057.201294,544.730042 1068.501831,555.195618 1085.208130,559.569824 
	C1100.890137,563.675842 1116.475708,563.674133 1131.819092,557.508423 
	C1134.221802,556.542908 1137.305298,556.439392 1139.898438,556.908264 
	C1165.934814,561.617310 1189.875488,557.542603 1209.736816,539.094971 
	C1223.912842,525.927917 1236.829346,511.510315 1245.928345,494.135345 
	C1246.629272,492.796875 1247.618774,491.609589 1248.354858,490.527435 
	C1248.891479,500.702393 1248.390015,510.824829 1250.132935,520.544861 
	C1255.271606,549.203369 1279.774414,565.140198 1308.174194,559.054382 
	C1322.671387,555.947754 1334.977539,548.441162 1344.776489,537.741821 
	C1354.518311,527.104919 1362.988770,515.290649 1371.823364,503.843384 
	C1374.598877,500.247040 1376.749023,496.167877 1379.357910,492.036285 
	C1380.276611,501.788147 1380.554688,511.080505 1382.119507,520.150879 
	C1386.627319,546.278381 1403.192749,560.432007 1429.136353,559.574402 
	C1437.943970,559.283203 1447.104858,557.293762 1455.303467,554.053772 
	C1465.895752,549.867737 1475.684937,543.649536 1486.319946,538.042786 
	C1486.021851,537.829468 1486.645630,538.125488 1487.068726,538.600464 
	C1500.975708,554.210815 1530.812256,559.727722 1553.327026,548.025818 
	C1569.510986,539.614319 1581.050659,526.447144 1591.830078,512.343994 
	C1593.387451,510.306549 1594.789673,508.150665 1596.735352,505.377502 
	C1597.179077,511.424042 1597.039795,516.587891 1598.015137,521.531799 
	C1601.313599,538.249756 1608.516235,552.250122 1626.300537,557.560669 
	C1642.932617,562.527039 1658.233398,559.271729 1672.236084,549.210999 
	C1684.412598,540.462402 1694.369385,529.585632 1703.254395,517.586304 
	C1719.493286,495.655670 1732.864502,472.022278 1743.791870,447.124512 
	C1755.093628,421.373901 1765.296753,395.140594 1775.932251,369.098755 
	C1776.888672,366.756805 1777.316528,364.320679 1780.873657,364.843048 
	C1791.558105,366.412140 1802.537598,366.771057 1812.911743,369.479431 
	C1831.181641,374.249023 1835.298706,384.741333 1826.363159,401.382599 
	C1819.746826,413.704559 1812.586304,425.733124 1805.763550,437.945679 
	C1795.597900,456.142090 1785.947754,474.581482 1780.579346,494.897430 
	C1776.570435,510.068909 1777.042725,524.894531 1784.203857,539.175781 
	C1794.137207,558.985779 1813.497803,566.223755 1833.263428,556.161499 
	C1841.847534,551.791504 1850.278198,545.793335 1856.619995,538.624878 
	C1869.274048,524.321777 1880.437378,508.699677 1892.215942,493.621918 
	C1892.950562,492.681458 1893.679932,491.736969 1895.067139,489.950348 
	C1895.067139,495.249176 1894.883789,499.407898 1895.096558,503.546204 
	C1896.612061,533.022949 1916.627197,556.280945 1945.624390,561.068298 
	C1974.098999,565.769409 1999.354492,557.809265 2021.448364,539.443542 
	C2022.944824,538.199646 2024.447266,536.962952 2025.913940,535.750244 
	C2028.899292,538.453796 2028.987183,540.980957 2027.517944,544.371338 
	C2021.957520,557.201538 2016.609619,570.128662 2011.433105,583.119568 
	C1994.356201,625.975464 1977.622437,668.964722 1966.597656,713.886108 
	C1962.585327,730.234314 1958.973267,746.715637 1960.934814,763.766968 
	C1962.682495,778.958435 1971.478516,788.409973 1986.402710,791.169983 
	C2000.406494,793.759827 2013.565308,791.279114 2025.926147,784.317261 
	C2038.509155,777.230225 2048.301758,767.092896 2057.038086,755.805420 
	C2058.516357,753.895142 2059.999268,751.988098 2061.699219,749.796936 
	C2070.712646,760.895996 2082.339111,766.518372 2095.677002,769.017395 
	C2109.087158,771.529846 2122.535889,771.183899 2136.875244,769.348938 
M1027.276611,294.014343 
	C1031.712158,303.414398 1039.119629,308.078796 1049.520264,307.961334 
	C1066.134644,307.773682 1081.102051,292.998657 1081.568481,276.330688 
	C1081.847534,266.361938 1075.070068,256.833618 1065.377686,254.216476 
	C1053.249512,250.941605 1042.995483,254.813080 1034.512207,263.550201 
	C1026.378418,271.927460 1023.084290,281.749146 1027.276611,294.014343 
M1677.926880,302.620209 
	C1682.165771,304.375275 1686.281006,307.185364 1690.665527,307.699646 
	C1708.050415,309.738800 1725.133545,294.570190 1725.914307,277.060364 
	C1726.405396,266.048096 1719.216919,256.476593 1708.511230,253.887634 
	C1694.903809,250.596954 1679.629639,258.270874 1672.845093,271.806580 
	C1667.400879,282.668274 1668.988159,293.233307 1677.926880,302.620209 
z"/>
<path fill="#FDFEFE" opacity="1.000000" stroke="none" 
	d="
M2136.437012,769.428772 
	C2122.535889,771.183899 2109.087158,771.529846 2095.677002,769.017395 
	C2082.339111,766.518372 2070.712646,760.895996 2061.699219,749.796936 
	C2059.999268,751.988098 2058.516357,753.895142 2057.038086,755.805420 
	C2048.301758,767.092896 2038.509155,777.230225 2025.926147,784.317261 
	C2013.565308,791.279114 2000.406494,793.759827 1986.402710,791.169983 
	C1971.478516,788.409973 1962.682495,778.958435 1960.934814,763.766968 
	C1958.973267,746.715637 1962.585327,730.234314 1966.597656,713.886108 
	C1977.622437,668.964722 1994.356201,625.975464 2011.433105,583.119568 
	C2016.609619,570.128662 2021.957520,557.201538 2027.517944,544.371338 
	C2028.987183,540.980957 2028.899292,538.453796 2025.913940,535.750244 
	C2024.447266,536.962952 2022.944824,538.199646 2021.448364,539.443542 
	C1999.354492,557.809265 1974.098999,565.769409 1945.624390,561.068298 
	C1916.627197,556.280945 1896.612061,533.022949 1895.096558,503.546204 
	C1894.883789,499.407898 1895.067139,495.249176 1895.067139,489.950348 
	C1893.679932,491.736969 1892.950562,492.681458 1892.215942,493.621918 
	C1880.437378,508.699677 1869.274048,524.321777 1856.619995,538.624878 
	C1850.278198,545.793335 1841.847534,551.791504 1833.263428,556.161499 
	C1813.497803,566.223755 1794.137207,558.985779 1784.203857,539.175781 
	C1777.042725,524.894531 1776.570435,510.068909 1780.579346,494.897430 
	C1785.947754,474.581482 1795.597900,456.142090 1805.763550,437.945679 
	C1812.586304,425.733124 1819.746826,413.704559 1826.363159,401.382599 
	C1835.298706,384.741333 1831.181641,374.249023 1812.911743,369.479431 
	C1802.537598,366.771057 1791.558105,366.412140 1780.873657,364.843048 
	C1777.316528,364.320679 1776.888672,366.756805 1775.932251,369.098755 
	C1765.296753,395.140594 1755.093628,421.373901 1743.791870,447.124512 
	C1732.864502,472.022278 1719.493286,495.655670 1703.254395,517.586304 
	C1694.369385,529.585632 1684.412598,540.462402 1672.236084,549.210999 
	C1658.233398,559.271729 1642.932617,562.527039 1626.300537,557.560669 
	C1608.516235,552.250122 1601.313599,538.249756 1598.015137,521.531799 
	C1597.039795,516.587891 1597.179077,511.424042 1596.735352,505.377502 
	C1594.789673,508.150665 1593.387451,510.306549 1591.830078,512.343994 
	C1581.050659,526.447144 1569.510986,539.614319 1553.327026,548.025818 
	C1530.812256,559.727722 1500.975708,554.210815 1487.068726,538.600464 
	C1486.645630,538.125488 1486.021851,537.829468 1486.319946,538.042786 
	C1475.684937,543.649536 1465.895752,549.867737 1455.303467,554.053772 
	C1447.104858,557.293762 1437.943970,559.283203 1429.136353,559.574402 
	C1403.192749,560.432007 1386.627319,546.278381 1382.119507,520.150879 
	C1380.554688,511.080505 1380.276611,501.788147 1379.357910,492.036285 
	C1376.749023,496.167877 1374.598877,500.247040 1371.823364,503.843384 
	C1362.988770,515.290649 1354.518311,527.104919 1344.776489,537.741821 
	C1334.977539,548.441162 1322.671387,555.947754 1308.174194,559.054382 
	C1279.774414,565.140198 1255.271606,549.203369 1250.132935,520.544861 
	C1248.390015,510.824829 1248.891479,500.702393 1248.354858,490.527435 
	C1247.618774,491.609589 1246.629272,492.796875 1245.928345,494.135345 
	C1236.829346,511.510315 1223.912842,525.927917 1209.736816,539.094971 
	C1189.875488,557.542603 1165.934814,561.617310 1139.898438,556.908264 
	C1137.305298,556.439392 1134.221802,556.542908 1131.819092,557.508423 
	C1116.475708,563.674133 1100.890137,563.675842 1085.208130,559.569824 
	C1068.501831,555.195618 1057.201294,544.730042 1050.216675,526.865051 
	C1049.330811,528.421082 1048.779297,530.360901 1047.505005,531.470703 
	C1039.368286,538.556763 1031.518433,546.096741 1022.716187,552.262207 
	C1011.846497,559.875854 999.278015,561.277039 986.302612,558.689758 
	C967.504517,554.941406 954.408691,538.628235 953.027222,517.100952 
	C952.796814,513.510437 952.994751,509.892487 952.994751,504.952728 
	C951.365723,507.351685 950.442505,508.624329 949.608276,509.952881 
	C938.129944,528.232910 924.882874,545.131409 909.511230,560.278564 
	C896.234924,573.361023 881.212830,583.514709 862.265015,586.559387 
	C830.841797,591.608582 805.677673,569.843567 805.067200,537.963318 
	C804.284119,497.070251 812.491882,457.837463 825.425781,419.392670 
	C833.227783,396.201904 841.462097,373.156586 849.504333,350.046661 
	C850.158630,348.166443 850.829346,346.291962 851.640442,343.995636 
	C850.326294,343.714996 849.282898,343.330444 848.226196,343.289551 
	C776.126343,340.501129 704.023621,337.785431 631.928772,334.874054 
	C627.215820,334.683746 625.141235,335.862793 623.526245,340.524902 
	C593.031189,428.556366 545.232483,505.985443 478.831604,571.333252 
	C430.608002,618.792114 373.711395,651.816040 307.079437,666.389404 
	C244.701263,680.032349 183.534576,675.544861 124.063461,651.952148 
	C106.325783,644.915466 90.140129,634.859192 75.132980,623.095886 
	C38.472870,594.359863 19.409313,555.920593 14.029287,510.261322 
	C11.086555,485.286957 14.239399,460.709686 20.366968,436.466217 
	C23.881706,422.560333 30.243601,409.970367 38.797024,398.500366 
	C49.950760,383.543396 63.047211,370.460052 78.773399,360.439545 
	C85.086639,356.416840 92.593468,354.153473 99.747719,351.629944 
	C102.062851,350.813324 105.035316,351.442719 107.618057,351.906525 
	C110.953911,352.505585 111.318306,354.703033 109.047211,356.855530 
	C107.276634,358.533630 104.960732,359.645599 102.857208,360.961273 
	C98.068375,363.956604 92.822121,366.396423 88.527855,369.980011 
	C32.879948,416.418640 24.451855,486.708618 41.758377,535.570923 
	C49.665504,557.895508 63.807068,575.733826 82.390923,590.133789 
	C111.073257,612.358643 144.105133,623.637146 179.606827,629.070190 
	C236.705521,637.808350 290.590515,625.664978 343.113647,604.535034 
	C431.506012,568.974976 497.704620,507.987183 546.118652,426.733276 
	C562.955078,398.476501 576.966675,368.856140 588.905823,338.233704 
	C589.433044,336.881500 589.804382,335.468445 590.410889,333.576782 
	C581.199707,333.276123 572.797302,334.906525 564.711365,337.970978 
	C557.400574,340.741730 550.335571,344.162354 543.019470,346.917084 
	C539.109192,348.389374 534.241821,351.006470 531.100037,346.513336 
	C528.119019,342.250214 530.864685,337.546478 533.728210,334.198608 
	C545.104980,320.897430 559.483704,312.763031 577.100403,311.257904 
	C583.553162,310.706604 590.103210,311.370941 596.584961,311.028442 
	C598.237305,310.941162 600.692871,309.488861 601.273010,308.054474 
	C630.194885,236.545990 662.004028,166.346970 696.420410,97.321877 
	C696.698242,96.764633 696.764526,96.101883 697.013794,95.175552 
	C685.972290,96.192978 675.214050,97.169601 664.458801,98.178207 
	C636.592773,100.791405 608.676392,102.966446 580.875183,106.147430 
	C540.222717,110.798836 500.532471,118.774818 462.677887,135.748123 
	C416.092407,156.636215 385.585876,191.479370 366.791687,237.862930 
	C358.112915,259.282013 353.067657,281.482971 354.895050,304.671997 
	C356.574768,325.987427 366.511353,343.575073 382.862701,357.007446 
	C399.021790,370.281860 418.056122,370.717987 437.489746,366.412048 
	C454.793579,362.578033 468.654724,353.058807 479.289093,339.083160 
	C496.235748,316.811829 504.638824,290.910034 509.678741,263.835602 
	C511.151978,255.921509 509.741211,247.925385 505.299835,240.719498 
	C504.450287,239.341156 504.409271,235.757294 504.975006,235.519226 
	C507.054932,234.643936 510.081787,233.789078 511.752899,234.720215 
	C513.986755,235.964951 515.865845,238.640060 516.901001,241.117233 
	C525.680725,262.127380 527.193176,283.454041 518.113342,304.741547 
	C504.927643,335.655090 485.276764,360.743835 453.186371,373.910095 
	C399.256927,396.036652 341.504425,371.941772 318.906464,314.730835 
	C309.836243,291.767944 310.588684,268.815063 315.497009,245.483871 
	C325.986847,195.621582 353.358398,158.406235 398.197418,133.642288 
	C437.266479,112.064941 478.816040,99.507263 523.005432,93.827278 
	C575.796265,87.041687 628.803711,83.740753 681.879333,80.869110 
	C688.697632,80.500214 695.488831,79.608925 702.308044,79.288116 
	C705.633911,79.131645 707.428711,77.753555 709.452026,75.078743 
	C719.284424,62.080994 729.106628,49.032352 739.734619,36.692562 
	C749.120911,25.794455 762.164551,22.600256 776.018860,23.689575 
	C792.854675,25.013323 800.193481,36.383965 795.443237,52.756207 
	C792.529419,62.798859 785.600830,69.685699 777.064453,74.966423 
	C760.407043,85.270889 742.486145,92.199554 722.734009,93.314896 
	C718.839661,93.534790 716.740601,94.861351 715.309326,98.380646 
	C699.320129,137.695145 682.894958,176.836395 667.304626,216.307693 
	C655.563721,246.033295 644.863159,276.169800 633.698425,306.122986 
	C633.181152,307.510895 632.653442,308.894897 631.948486,310.763458 
	C633.514343,310.922729 634.727051,311.101044 635.945557,311.162079 
	C685.863647,313.662689 735.784668,316.105530 785.699646,318.665588 
	C807.997803,319.809235 830.290588,321.085571 852.569641,322.547943 
	C856.603149,322.812683 858.340027,321.638367 859.767029,317.815826 
	C882.267944,257.541565 907.947876,198.645187 937.911011,141.700668 
	C946.343933,125.674004 956.279419,110.405693 966.081604,95.146683 
	C970.373413,88.465569 975.942505,82.579666 981.137878,76.509178 
	C995.070190,60.230171 1013.997131,53.853569 1034.213379,50.316166 
	C1037.333008,49.770287 1040.679321,50.519478 1043.920776,50.669739 
	C1044.119995,51.189533 1044.319214,51.709328 1044.518433,52.229122 
	C1043.047485,53.542103 1041.781006,55.289146 1040.071045,56.094456 
	C1031.774780,60.001747 1026.045532,66.670677 1020.572815,73.645515 
	C1003.233521,95.743629 989.082703,119.865685 975.599548,144.421097 
	C945.242004,199.708405 919.029053,256.841705 898.673645,316.594696 
	C898.146057,318.143494 897.696533,319.718903 897.002808,321.950378 
	C914.880005,321.505676 932.329102,322.404938 949.375061,317.593079 
	C952.246887,316.782410 955.166870,315.997528 958.116333,315.676086 
	C959.331726,315.543640 961.389404,316.371216 961.779053,317.300781 
	C962.183472,318.265503 961.431824,320.391693 960.493896,321.124298 
	C956.574036,324.186157 952.619385,327.330750 948.267578,329.688354 
	C935.039612,336.854767 920.565552,339.992432 905.793213,341.965149 
	C903.976929,342.207703 902.113586,342.762726 900.341980,342.560272 
	C892.372009,341.649536 889.544434,345.869904 887.267395,352.983765 
	C873.863953,394.857513 860.176392,436.636841 851.587097,479.851135 
	C847.909790,498.352509 844.881897,516.965332 848.009338,535.894592 
	C848.652893,539.789490 849.805603,543.737488 851.489197,547.299072 
	C858.011597,561.096497 871.401611,566.222961 884.808350,559.062317 
	C892.468201,554.971130 899.558472,549.331543 905.880920,543.313110 
	C921.679382,528.274292 933.581726,510.130920 945.190674,491.790314 
	C967.408691,456.688660 983.645264,418.794556 997.976807,379.983490 
	C999.822083,374.986328 1002.039185,370.122314 1003.776550,365.090454 
	C1006.449585,357.348755 1006.468140,349.721405 1001.903259,342.522858 
	C1000.681213,340.595642 999.509705,338.636383 997.889038,335.998535 
	C1013.625854,335.998535 1028.710693,335.415710 1043.722046,336.214111 
	C1052.929077,336.703796 1055.442383,342.649170 1051.426270,352.254272 
	C1045.326172,366.842987 1038.812622,381.258240 1032.568237,395.787323 
	C1019.287903,426.686768 1006.049377,457.604187 992.832764,488.530945 
	C988.099487,499.606537 984.240906,510.937531 983.762390,523.128845 
	C983.116638,539.580688 992.992432,547.809998 1009.296936,544.432556 
	C1018.639893,542.497131 1026.214355,537.355286 1032.510010,530.528198 
	C1037.802612,524.788635 1042.582886,518.542297 1047.195190,512.231934 
	C1048.506348,510.438080 1048.934937,507.631409 1048.917358,505.295532 
	C1048.824097,492.827911 1053.885742,482.700653 1062.621948,474.217896 
	C1064.383911,472.507080 1066.506226,470.545990 1068.750488,470.076141 
	C1074.250977,468.924530 1076.471436,464.977692 1078.653564,460.596466 
	C1096.466309,424.831665 1114.433960,389.143555 1132.119019,353.315826 
	C1139.298340,338.771729 1146.794922,324.493134 1158.077026,312.626587 
	C1167.780396,302.420593 1179.057373,295.142914 1193.681396,294.605804 
	C1201.881470,294.304565 1209.584473,296.155090 1216.551514,300.526337 
	C1219.460938,302.351868 1222.090820,304.714355 1220.162354,308.710815 
	C1218.114258,312.955383 1214.683960,312.218994 1211.171265,310.888214 
	C1192.427490,303.786957 1176.846802,310.655060 1170.114746,330.009888 
	C1163.478638,349.088501 1164.093384,368.414032 1171.783081,387.166229 
	C1177.590332,401.328003 1184.636963,414.997833 1190.100464,429.281250 
	C1204.500488,466.927490 1205.085083,497.899567 1161.881226,538.639526 
	C1158.995239,541.361023 1155.743042,543.694153 1151.900391,546.828247 
	C1160.585083,548.762634 1168.484253,548.832336 1176.310425,546.345947 
	C1195.886597,540.126770 1209.852661,526.581726 1220.728516,510.051575 
	C1230.780029,494.774353 1239.342285,478.518005 1248.576660,462.702301 
	C1255.151978,451.440704 1259.475830,439.349060 1263.638062,426.974945 
	C1274.937622,393.382324 1287.401611,360.181396 1299.411011,326.827667 
	C1300.067627,325.003876 1300.787598,323.202911 1301.749146,320.680359 
	C1290.819580,320.680359 1280.690918,320.689087 1270.562256,320.677094 
	C1264.502808,320.669891 1262.764893,319.267914 1262.645630,314.360199 
	C1262.510864,308.817566 1265.164917,305.960571 1270.616089,305.942047 
	C1281.282349,305.905853 1291.956787,305.695068 1302.611694,306.044556 
	C1307.067017,306.190735 1309.143066,304.778503 1311.179688,300.711121 
	C1325.339355,272.432220 1339.464844,244.119797 1354.498169,216.302872 
	C1360.553955,205.097504 1368.552002,194.876038 1376.238159,184.636108 
	C1383.854370,174.489304 1394.015259,167.135971 1405.236328,161.328003 
	C1422.804688,152.234695 1438.719849,160.140457 1442.125977,179.604584 
	C1444.583984,193.649963 1442.562378,207.521805 1437.271362,220.324432 
	C1427.746338,243.372620 1416.898438,265.876343 1406.490723,288.555939 
	C1403.931396,294.133087 1400.938965,299.511444 1397.660278,305.931732 
	C1403.528931,305.931732 1408.725464,305.931702 1413.921875,305.931732 
	C1418.421753,305.931793 1422.921753,305.906555 1427.421509,305.938660 
	C1432.591187,305.975555 1434.249756,307.509552 1434.290649,312.193298 
	C1434.335938,317.392578 1431.852173,320.573914 1427.258545,320.636047 
	C1417.760498,320.764557 1408.224365,321.178558 1398.771484,320.513489 
	C1391.886963,320.029083 1388.271606,322.412018 1384.693604,328.338837 
	C1362.436646,365.205994 1335.349243,398.241119 1304.081787,427.872833 
	C1302.078003,429.771851 1300.499146,432.669525 1299.860718,435.371552 
	C1294.844971,456.599854 1290.029297,477.876617 1285.314453,499.174438 
	C1282.868774,510.222717 1281.806885,521.242249 1287.448364,531.842468 
	C1291.334595,539.144836 1296.750366,542.377686 1304.952881,541.519531 
	C1315.306763,540.436279 1324.660889,536.781311 1332.612793,529.916321 
	C1345.341187,518.927673 1355.536743,505.760742 1364.812134,491.870056 
	C1376.752930,473.987579 1387.515381,455.489410 1396.026978,435.624268 
	C1410.877319,400.965088 1433.302368,371.914612 1463.185425,348.797394 
	C1477.591431,337.653107 1493.206421,328.669128 1511.665283,326.675110 
	C1519.162964,325.865204 1527.054688,326.196625 1534.463623,327.604889 
	C1549.034790,330.374542 1558.758423,339.678467 1563.820312,353.464111 
	C1570.871460,372.667419 1570.990845,392.485291 1566.411621,412.087128 
	C1556.353027,455.144318 1533.827026,491.209320 1502.702759,522.184387 
	C1501.412964,523.468018 1499.904419,524.531860 1498.345825,525.824219 
	C1504.213257,537.345764 1513.730469,541.708008 1525.265869,542.817871 
	C1538.091431,544.051697 1548.953491,539.450256 1557.947876,530.725525 
	C1572.337524,516.767212 1585.054321,501.534851 1595.154297,483.977173 
	C1617.016235,445.972321 1632.652344,405.273895 1648.275024,364.543091 
	C1651.158936,357.024475 1650.702515,349.500977 1646.230835,342.496704 
	C1645.006714,340.579254 1643.869263,338.606506 1642.299438,336.009735 
	C1658.056763,336.009735 1673.153442,335.465424 1688.185303,336.218567 
	C1696.883057,336.654388 1699.616943,342.242920 1696.204224,350.925964 
	C1692.066895,361.452911 1687.259399,371.715393 1682.793457,382.114410 
	C1667.616943,417.453796 1652.436035,452.791351 1637.317017,488.155365 
	C1632.518311,499.379822 1628.547852,510.882690 1628.070435,523.228760 
	C1627.442383,539.474548 1637.187134,547.679749 1653.255371,544.514954 
	C1663.694092,542.459045 1672.348511,536.801636 1678.559448,528.589966 
	C1689.388184,514.272644 1700.124878,499.755646 1709.396851,484.413818 
	C1747.619629,421.168976 1772.467163,352.785675 1786.120483,280.243256 
	C1786.731934,276.994537 1787.668091,273.734741 1788.966797,270.700043 
	C1794.801147,257.067108 1810.600830,254.842606 1820.082031,266.396271 
	C1828.296509,276.406494 1829.612793,288.201111 1827.504150,300.451599 
	C1825.144653,314.159363 1817.392456,324.959015 1807.626099,334.372162 
	C1802.641846,339.176086 1797.189087,343.493744 1791.233398,348.649872 
	C1822.074341,349.848022 1852.074585,349.312592 1882.421875,345.867493 
	C1884.550537,352.713318 1884.749634,359.431152 1882.143677,365.607849 
	C1875.875977,380.463715 1869.456665,395.292450 1862.244995,409.704987 
	C1849.501709,435.172150 1836.035156,460.303497 1826.692505,487.290527 
	C1823.383057,496.850006 1821.115479,506.788849 1818.741211,516.643372 
	C1817.896118,520.150085 1817.853638,523.927124 1817.943726,527.568359 
	C1818.270386,540.760803 1827.603027,546.549438 1838.951904,539.647522 
	C1846.057983,535.325806 1852.469727,529.318970 1857.968262,523.002136 
	C1872.700806,506.076599 1883.768799,486.615234 1894.313232,466.922607 
	C1898.774292,458.591339 1902.681641,449.915375 1906.214844,441.144012 
	C1919.536621,408.072662 1938.051392,378.460785 1964.585083,354.416534 
	C1982.248169,338.410645 2002.389038,326.550354 2026.338379,322.501678 
	C2035.918945,320.882050 2045.273315,322.101715 2054.156250,326.244202 
	C2067.733643,332.575867 2073.505371,343.347717 2071.598633,358.219452 
	C2069.516113,374.463654 2062.316406,388.305420 2052.126709,400.803528 
	C2032.098999,425.368652 2006.565063,441.514587 1976.123169,449.838989 
	C1965.717529,452.684448 1955.031616,454.496735 1944.510864,456.940399 
	C1943.159668,457.254303 1941.333740,458.268646 1940.905640,459.403076 
	C1933.547729,478.899170 1930.197021,499.100586 1933.584473,519.731628 
	C1937.198853,541.744568 1951.897827,551.286133 1974.111206,547.584595 
	C1992.121826,544.583496 2006.579224,535.165344 2019.288574,522.647949 
	C2020.400024,521.553284 2020.825317,519.487061 2021.038818,517.804688 
	C2021.791748,511.868591 2022.025269,505.856323 2022.984009,499.958801 
	C2024.902954,488.157074 2032.139038,480.188019 2042.495483,474.986938 
	C2045.197021,473.630157 2048.542480,473.010864 2051.586182,473.030548 
	C2054.748291,473.051056 2056.413086,472.034119 2057.702881,469.274231 
	C2060.027588,464.298981 2062.771729,459.520477 2065.123779,454.557068 
	C2091.784180,398.297272 2118.034912,341.839478 2145.169434,285.809631 
	C2161.858154,251.348999 2179.604980,217.388885 2197.479492,183.522232 
	C2202.560059,173.895676 2209.026611,164.755020 2216.151123,156.509247 
	C2227.281494,143.627396 2242.166260,139.887238 2258.778320,142.484497 
	C2265.643066,143.557785 2272.513672,144.592636 2279.423340,145.651382 
	C2279.423340,145.727783 2279.555420,146.154938 2279.404785,146.313766 
	C2251.881592,175.319763 2231.302002,209.254684 2211.049072,243.345673 
	C2164.722168,321.325409 2124.088623,402.251312 2087.161621,485.058990 
	C2086.425293,486.710785 2086.163818,489.564209 2087.089355,490.816223 
	C2097.851318,505.378876 2103.314697,522.014709 2106.890381,539.471619 
	C2108.819336,548.888977 2109.176514,549.074280 2118.725098,546.599915 
	C2127.838867,544.238098 2135.441406,539.136597 2142.197754,532.823364 
	C2157.393555,518.623901 2170.385498,502.574829 2180.574219,484.444122 
	C2188.319824,470.660645 2195.444580,456.525085 2202.713623,442.477753 
	C2219.927246,409.212006 2237.024658,375.886078 2254.258057,342.630676 
	C2258.091553,335.233398 2264.711914,330.911804 2272.722412,330.594452 
	C2288.117188,329.984619 2303.553223,330.416840 2319.984863,330.416840 
	C2316.940674,332.759827 2314.254883,334.373657 2312.138916,336.543060 
	C2306.487793,342.336334 2299.771973,347.604858 2295.791748,354.430359 
	C2271.443604,396.184784 2250.432617,439.675995 2230.601074,483.724487 
	C2225.066406,496.017365 2220.117920,508.679169 2221.066406,522.646240 
	C2221.257324,525.461487 2221.587402,528.306030 2222.240967,531.044495 
	C2225.058594,542.849060 2236.118652,548.410828 2246.930176,542.905273 
	C2252.188965,540.227356 2257.344482,536.669006 2261.381348,532.405579 
	C2270.643555,522.623169 2279.759521,512.598022 2287.925781,501.901093 
	C2317.864014,462.686493 2341.508545,419.613403 2363.951660,375.848206 
	C2369.041992,365.922211 2374.048828,355.947144 2378.808105,345.859741 
	C2383.003174,336.967712 2389.791260,331.105225 2399.437012,330.556030 
	C2412.978760,329.784973 2426.597168,330.361206 2440.202393,330.361206 
	C2440.121582,330.727020 2440.158203,331.148346 2439.980957,331.278442 
	C2425.746582,341.722931 2415.410156,355.381317 2409.031006,371.618683 
	C2396.009033,404.762238 2383.281250,438.033051 2371.149170,471.511261 
	C2359.635742,503.282928 2349.036621,535.386047 2338.040283,567.345093 
	C2337.675293,568.405823 2337.367432,569.486267 2336.832764,571.200256 
	C2338.738281,570.744446 2340.141357,570.503296 2341.484131,570.073853 
	C2384.075928,556.454102 2418.119629,531.701721 2440.882568,492.735718 
	C2452.302490,473.186829 2462.941162,453.181641 2473.952148,433.393402 
	C2475.164062,431.215759 2476.160156,428.755280 2477.890869,427.083069 
	C2479.174072,425.843536 2482.303223,424.594940 2483.166992,425.250854 
	C2484.839844,426.521301 2485.720459,429.054077 2486.463623,431.223267 
	C2486.765625,432.104858 2485.956543,433.449493 2485.478516,434.504211 
	C2469.833984,469.000275 2453.172363,502.837585 2428.084717,531.836487 
	C2411.285156,551.255249 2391.362305,566.081665 2367.748535,575.978149 
	C2355.005859,581.318604 2342.093750,586.258484 2329.395508,591.699524 
	C2326.902588,592.767700 2324.315430,594.896606 2322.994873,597.228760 
	C2301.440186,635.299438 2277.997314,672.035461 2248.496826,704.586182 
	C2226.052002,729.351685 2200.708984,750.181763 2168.718018,761.357117 
	C2158.428955,764.951416 2147.507324,766.736267 2136.437012,769.428772 
M1309.870239,405.971558 
	C1334.239380,380.190979 1354.989746,351.728973 1374.027710,320.688721 
	C1363.489868,320.688721 1354.193359,320.584900 1344.905640,320.820831 
	C1343.751221,320.850128 1342.102173,322.461884 1341.592163,323.711700 
	C1330.476807,350.946838 1319.490356,378.234619 1308.156616,406.008972 
	C1308.206787,406.298370 1308.256958,406.587769 1308.307251,406.877136 
	C1308.630005,406.676392 1308.952637,406.475616 1309.870239,405.971558 
M2343.164795,443.155975 
	C2326.838867,471.064087 2310.532715,499.052155 2289.290771,523.582764 
	C2281.301270,532.809387 2271.914795,541.079102 2262.161621,548.459167 
	C2251.104980,556.825928 2237.976562,559.717102 2223.932129,558.990173 
	C2195.853271,557.536804 2183.431152,535.609802 2186.466309,512.213745 
	C2187.191406,506.623932 2187.949463,501.038361 2188.736328,495.121429 
	C2188.033691,495.570740 2187.676514,495.681030 2187.515137,495.922455 
	C2186.681885,497.167206 2185.898682,498.445404 2185.098389,499.712189 
	C2175.009277,515.685425 2163.990723,530.909668 2149.567383,543.345032 
	C2140.486572,551.174316 2130.466553,557.289307 2118.502686,559.617310 
	C2115.792236,560.144775 2113.025635,560.382874 2109.884521,560.808289 
	C2112.059814,589.892517 2110.718750,618.337769 2103.367676,647.333618 
	C2136.372803,627.361389 2171.538574,616.671387 2207.205322,607.377563 
	C2232.340088,600.828064 2257.527100,594.466797 2282.779541,588.390991 
	C2288.034668,587.126587 2290.945312,584.490295 2293.284424,579.818115 
	C2315.143799,536.155762 2330.056396,489.895294 2344.918457,442.945587 
	C2344.918457,442.378479 2344.918457,441.811371 2344.918457,440.186798 
	C2344.201172,441.677307 2343.947754,442.203644 2343.164795,443.155975 
M1421.074585,488.648560 
	C1418.103271,501.717865 1416.027832,514.872192 1419.076660,528.201355 
	C1421.858887,540.365295 1430.615112,546.690125 1442.784912,545.575256 
	C1456.925781,544.279907 1467.784790,536.583374 1477.479370,528.193176 
	C1474.647827,521.461731 1471.528564,515.522583 1469.635498,509.215332 
	C1466.437134,498.558777 1466.652344,487.766449 1471.518188,477.529938 
	C1475.890625,468.331573 1486.079834,464.152618 1496.454590,466.870422 
	C1505.716431,469.296661 1511.333496,477.286713 1510.926758,487.400085 
	C1510.892944,488.240143 1511.102295,489.089966 1511.198853,489.935242 
	C1511.620850,490.062805 1512.042969,490.190338 1512.465088,490.317871 
	C1518.891113,478.340393 1525.461548,466.437622 1531.708252,454.367401 
	C1540.385864,437.600372 1547.579224,420.245300 1550.514282,401.444000 
	C1552.496948,388.742584 1553.919312,375.944489 1550.288452,363.299408 
	C1547.156250,352.390930 1539.837036,347.034332 1528.681641,346.791687 
	C1518.482056,346.569824 1509.969971,351.010223 1501.967163,356.602234 
	C1487.333008,366.828033 1475.215454,379.636780 1465.122681,394.265411 
	C1445.302612,422.992950 1430.674927,454.210999 1421.074585,488.648560 
M2148.072754,645.471252 
	C2129.787598,652.302734 2112.993164,661.608887 2098.980957,675.410339 
	C2097.280518,677.085022 2095.726318,679.280579 2095.011475,681.523743 
	C2089.225830,699.677307 2081.686523,717.021301 2072.167725,733.540710 
	C2071.104736,735.385376 2070.866211,738.429810 2071.577881,740.447876 
	C2074.779297,749.526184 2082.295898,753.756165 2091.027588,755.913635 
	C2101.969727,758.617554 2112.893555,757.352417 2123.627686,754.488464 
	C2145.728760,748.591858 2164.189209,736.190369 2181.129883,721.390137 
	C2210.960938,695.328430 2237.835449,666.462402 2261.237793,634.486877 
	C2267.129639,626.436646 2271.765381,617.467041 2276.978271,608.919800 
	C2276.609619,608.312805 2276.240967,607.705811 2275.872314,607.098816 
	C2233.512939,619.791504 2191.153809,632.484192 2148.072754,645.471252 
M2037.188354,604.736328 
	C2030.933960,622.645508 2024.402954,640.463989 2018.490234,658.485229 
	C2009.614258,685.538269 2001.095581,712.748230 1997.661377,741.142212 
	C1996.675293,749.294983 1996.770752,757.810608 1997.954102,765.929016 
	C1999.153809,774.160461 2005.352783,776.823608 2012.909790,773.215210 
	C2016.899902,771.309814 2020.705200,768.653687 2023.969360,765.656494 
	C2035.838867,754.758362 2045.333130,741.921143 2053.376221,728.004333 
	C2054.174316,726.623535 2054.596924,724.910645 2054.776611,723.305115 
	C2056.960449,703.771545 2063.954590,686.281921 2076.511230,671.048767 
	C2078.041992,669.191956 2079.226074,666.858276 2079.941406,664.550354 
	C2087.004150,641.758850 2092.307373,618.564880 2094.608887,594.789307 
	C2095.611816,584.426270 2095.774902,573.981934 2096.351318,562.963074 
	C2081.675293,563.755371 2068.705566,561.306641 2057.106934,552.448303 
	C2050.377441,570.136047 2043.932617,587.075867 2037.188354,604.736328 
M1120.233643,537.298828 
	C1121.049927,537.873962 1121.925415,538.381531 1122.672607,539.035522 
	C1126.679688,542.542847 1129.869995,541.868591 1133.592041,538.053467 
	C1141.407837,530.042053 1147.361572,520.993652 1151.162354,510.495728 
	C1157.166016,493.913757 1158.837158,476.690948 1157.381592,459.315247 
	C1155.172729,432.949310 1151.894653,406.673187 1149.662231,380.308868 
	C1148.790283,370.010590 1149.519653,359.576721 1149.519653,349.204590 
	C1148.953125,349.129395 1148.386597,349.054169 1147.820068,348.978973 
	C1127.712524,388.932922 1107.604980,428.886871 1087.283569,469.265503 
	C1096.538574,470.912231 1099.421631,476.724152 1100.101929,484.107880 
	C1100.575073,489.243835 1100.515625,494.430725 1101.036621,499.560059 
	C1102.535400,514.315491 1107.537354,527.388977 1120.233643,537.298828 
M1993.053223,431.634430 
	C2013.481567,421.449890 2029.992065,406.834595 2042.378296,387.664398 
	C2049.374756,376.835785 2053.449463,364.954132 2053.836182,351.993713 
	C2054.254150,337.988068 2046.924316,333.173309 2034.046265,339.020325 
	C2030.589600,340.589844 2027.201050,342.538086 2024.217407,344.870331 
	C2018.983643,348.961609 2013.821533,353.214691 2009.092896,357.870697 
	C1984.205444,382.375793 1964.354736,410.568970 1948.436523,441.590851 
	C1947.924072,442.589294 1947.542114,443.654633 1946.750610,445.503479 
	C1963.378296,444.073669 1978.005493,438.467041 1993.053223,431.634430 
M1418.582275,232.064499 
	C1422.868652,219.964233 1427.233643,207.811050 1426.721313,194.756653 
	C1426.570679,190.920105 1424.423706,187.161896 1423.191650,183.367798 
	C1419.653442,185.205063 1415.049072,186.189133 1412.771484,189.035217 
	C1405.109497,198.610184 1396.942749,208.162399 1391.385864,218.966293 
	C1377.166748,246.611816 1364.245605,274.925079 1350.837402,302.986603 
	C1350.458374,303.780029 1350.441895,304.746796 1350.193237,305.934387 
	C1360.398193,305.934387 1370.217041,306.040924 1380.028442,305.815796 
	C1381.447388,305.783264 1383.507202,304.490784 1384.129028,303.221893 
	C1395.611938,279.789856 1406.921265,256.272705 1418.582275,232.064499 
M1090.686768,501.481049 
	C1089.916138,497.627991 1088.591675,500.333130 1087.719116,501.323944 
	C1082.031494,507.782074 1078.653931,515.235168 1078.416748,523.935730 
	C1077.837158,545.206665 1097.255859,557.890259 1116.432373,548.110535 
	C1099.990723,537.092468 1092.481445,521.241516 1090.686768,501.481049 
M2076.554932,548.169250 
	C2082.342285,549.068604 2088.129639,549.967957 2094.576416,550.969788 
	C2093.248779,533.292480 2089.307373,518.074951 2078.592529,504.459259 
	C2074.463379,513.860535 2070.658691,522.524475 2066.852539,531.187744 
	C2063.588379,538.617493 2064.388428,541.256348 2071.379883,545.666626 
	C2072.777100,546.548157 2074.329102,547.184204 2076.554932,548.169250 
M771.917664,50.675907 
	C768.489136,44.353626 763.694275,42.439987 758.623474,45.998207 
	C747.337280,53.917675 739.379883,64.970329 730.078369,76.668266 
	C743.590576,74.466850 755.633972,72.337822 766.010193,65.095497 
	C770.680664,61.835640 773.363647,57.433769 771.917664,50.675907 
M1510.679199,491.450958 
	C1510.679199,491.450958 1510.473022,491.313141 1510.473022,491.313141 
	C1510.473022,491.313141 1510.487305,491.571960 1510.679199,491.450958 
z"/>
<path fill="#FDFEFE" opacity="1.000000" stroke="none" 
	d="
M1027.145386,293.646790 
	C1023.084290,281.749146 1026.378418,271.927460 1034.512207,263.550201 
	C1042.995483,254.813080 1053.249512,250.941605 1065.377686,254.216476 
	C1075.070068,256.833618 1081.847534,266.361938 1081.568481,276.330688 
	C1081.102051,292.998657 1066.134644,307.773682 1049.520264,307.961334 
	C1039.119629,308.078796 1031.712158,303.414398 1027.145386,293.646790 
z"/>
<path fill="#FDFEFE" opacity="1.000000" stroke="none" 
	d="
M1677.663696,302.373260 
	C1668.988159,293.233307 1667.400879,282.668274 1672.845093,271.806580 
	C1679.629639,258.270874 1694.903809,250.596954 1708.511230,253.887634 
	C1719.216919,256.476593 1726.405396,266.048096 1725.914307,277.060364 
	C1725.133545,294.570190 1708.050415,309.738800 1690.665527,307.699646 
	C1686.281006,307.185364 1682.165771,304.375275 1677.663696,302.373260 
z"/>
<path fill="#32C48D" opacity="1.000000" stroke="none" 
	d="
M1421.160645,488.243835 
	C1430.674927,454.210999 1445.302612,422.992950 1465.122681,394.265411 
	C1475.215454,379.636780 1487.333008,366.828033 1501.967163,356.602234 
	C1509.969971,351.010223 1518.482056,346.569824 1528.681641,346.791687 
	C1539.837036,347.034332 1547.156250,352.390930 1550.288452,363.299408 
	C1553.919312,375.944489 1552.496948,388.742584 1550.514282,401.444000 
	C1547.579224,420.245300 1540.385864,437.600372 1531.708252,454.367401 
	C1525.461548,466.437622 1518.891113,478.340393 1512.465088,490.317871 
	C1512.042969,490.190338 1511.620850,490.062805 1511.198853,489.935242 
	C1511.102295,489.089966 1510.892944,488.240143 1510.926758,487.400085 
	C1511.333496,477.286713 1505.716431,469.296661 1496.454590,466.870422 
	C1486.079834,464.152618 1475.890625,468.331573 1471.518188,477.529938 
	C1466.652344,487.766449 1466.437134,498.558777 1469.635498,509.215332 
	C1471.528564,515.522583 1474.647827,521.461731 1477.479370,528.193176 
	C1467.784790,536.583374 1456.925781,544.279907 1442.784912,545.575256 
	C1430.615112,546.690125 1421.858887,540.365295 1419.076660,528.201355 
	C1416.027832,514.872192 1418.103271,501.717865 1421.160645,488.243835 
z"/>
<path fill="#32C48E" opacity="1.000000" stroke="none" 
	d="
M2344.627441,443.499207 
	C2330.056396,489.895294 2315.143799,536.155762 2293.284424,579.818115 
	C2290.945312,584.490295 2288.034668,587.126587 2282.779541,588.390991 
	C2257.527100,594.466797 2232.340088,600.828064 2207.205322,607.377563 
	C2171.538574,616.671387 2136.372803,627.361389 2103.367676,647.333618 
	C2110.718750,618.337769 2112.059814,589.892517 2109.884521,560.808289 
	C2113.025635,560.382874 2115.792236,560.144775 2118.502686,559.617310 
	C2130.466553,557.289307 2140.486572,551.174316 2149.567383,543.345032 
	C2163.990723,530.909668 2175.009277,515.685425 2185.098389,499.712189 
	C2185.898682,498.445404 2186.681885,497.167206 2187.515137,495.922455 
	C2187.676514,495.681030 2188.033691,495.570740 2188.736328,495.121429 
	C2187.949463,501.038361 2187.191406,506.623932 2186.466309,512.213745 
	C2183.431152,535.609802 2195.853271,557.536804 2223.932129,558.990173 
	C2237.976562,559.717102 2251.104980,556.825928 2262.161621,548.459167 
	C2271.914795,541.079102 2281.301270,532.809387 2289.290771,523.582764 
	C2310.532715,499.052155 2326.838867,471.064087 2343.661133,443.137451 
	C2344.314209,443.245697 2344.470947,443.372467 2344.627441,443.499207 
z"/>
<path fill="#32C48D" opacity="1.000000" stroke="none" 
	d="
M2148.433594,645.324097 
	C2191.153809,632.484192 2233.512939,619.791504 2275.872314,607.098816 
	C2276.240967,607.705811 2276.609619,608.312805 2276.978271,608.919800 
	C2271.765381,617.467041 2267.129639,626.436646 2261.237793,634.486877 
	C2237.835449,666.462402 2210.960938,695.328430 2181.129883,721.390137 
	C2164.189209,736.190369 2145.728760,748.591858 2123.627686,754.488464 
	C2112.893555,757.352417 2101.969727,758.617554 2091.027588,755.913635 
	C2082.295898,753.756165 2074.779297,749.526184 2071.577881,740.447876 
	C2070.866211,738.429810 2071.104736,735.385376 2072.167725,733.540710 
	C2081.686523,717.021301 2089.225830,699.677307 2095.011475,681.523743 
	C2095.726318,679.280579 2097.280518,677.085022 2098.980957,675.410339 
	C2112.993164,661.608887 2129.787598,652.302734 2148.433594,645.324097 
z"/>
<path fill="#32C48E" opacity="1.000000" stroke="none" 
	d="
M2037.338013,604.375977 
	C2043.932617,587.075867 2050.377441,570.136047 2057.106934,552.448303 
	C2068.705566,561.306641 2081.675293,563.755371 2096.351318,562.963074 
	C2095.774902,573.981934 2095.611816,584.426270 2094.608887,594.789307 
	C2092.307373,618.564880 2087.004150,641.758850 2079.941406,664.550354 
	C2079.226074,666.858276 2078.041992,669.191956 2076.511230,671.048767 
	C2063.954590,686.281921 2056.960449,703.771545 2054.776611,723.305115 
	C2054.596924,724.910645 2054.174316,726.623535 2053.376221,728.004333 
	C2045.333130,741.921143 2035.838867,754.758362 2023.969360,765.656494 
	C2020.705200,768.653687 2016.899902,771.309814 2012.909790,773.215210 
	C2005.352783,776.823608 1999.153809,774.160461 1997.954102,765.929016 
	C1996.770752,757.810608 1996.675293,749.294983 1997.661377,741.142212 
	C2001.095581,712.748230 2009.614258,685.538269 2018.490234,658.485229 
	C2024.402954,640.463989 2030.933960,622.645508 2037.338013,604.375977 
z"/>
<path fill="#32C48E" opacity="1.000000" stroke="none" 
	d="
M1119.943115,537.089172 
	C1107.537354,527.388977 1102.535400,514.315491 1101.036621,499.560059 
	C1100.515625,494.430725 1100.575073,489.243835 1100.101929,484.107880 
	C1099.421631,476.724152 1096.538574,470.912231 1087.283569,469.265503 
	C1107.604980,428.886871 1127.712524,388.932922 1147.820068,348.978973 
	C1148.386597,349.054169 1148.953125,349.129395 1149.519653,349.204590 
	C1149.519653,359.576721 1148.790283,370.010590 1149.662231,380.308868 
	C1151.894653,406.673187 1155.172729,432.949310 1157.381592,459.315247 
	C1158.837158,476.690948 1157.166016,493.913757 1151.162354,510.495728 
	C1147.361572,520.993652 1141.407837,530.042053 1133.592041,538.053467 
	C1129.869995,541.868591 1126.679688,542.542847 1122.672607,539.035522 
	C1121.925415,538.381531 1121.049927,537.873962 1119.943115,537.089172 
z"/>
<path fill="#32C48E" opacity="1.000000" stroke="none" 
	d="
M1992.711670,431.787994 
	C1978.005493,438.467041 1963.378296,444.073669 1946.750610,445.503479 
	C1947.542114,443.654633 1947.924072,442.589294 1948.436523,441.590851 
	C1964.354736,410.568970 1984.205444,382.375793 2009.092896,357.870697 
	C2013.821533,353.214691 2018.983643,348.961609 2024.217407,344.870331 
	C2027.201050,342.538086 2030.589600,340.589844 2034.046265,339.020325 
	C2046.924316,333.173309 2054.254150,337.988068 2053.836182,351.993713 
	C2053.449463,364.954132 2049.374756,376.835785 2042.378296,387.664398 
	C2029.992065,406.834595 2013.481567,421.449890 1992.711670,431.787994 
z"/>
<path fill="#33C58E" opacity="1.000000" stroke="none" 
	d="
M1418.424805,232.418991 
	C1406.921265,256.272705 1395.611938,279.789856 1384.129028,303.221893 
	C1383.507202,304.490784 1381.447388,305.783264 1380.028442,305.815796 
	C1370.217041,306.040924 1360.398193,305.934387 1350.193237,305.934387 
	C1350.441895,304.746796 1350.458374,303.780029 1350.837402,302.986603 
	C1364.245605,274.925079 1377.166748,246.611816 1391.385864,218.966293 
	C1396.942749,208.162399 1405.109497,198.610184 1412.771484,189.035217 
	C1415.049072,186.189133 1419.653442,185.205063 1423.191650,183.367798 
	C1424.423706,187.161896 1426.570679,190.920105 1426.721313,194.756653 
	C1427.233643,207.811050 1422.868652,219.964233 1418.424805,232.418991 
z"/>
<path fill="#33C58E" opacity="1.000000" stroke="none" 
	d="
M1308.479248,405.512299 
	C1319.490356,378.234619 1330.476807,350.946838 1341.592163,323.711700 
	C1342.102173,322.461884 1343.751221,320.850128 1344.905640,320.820831 
	C1354.193359,320.584900 1363.489868,320.688721 1374.027710,320.688721 
	C1354.989746,351.728973 1334.239380,380.190979 1309.375366,405.930908 
	C1308.746826,405.764282 1308.613037,405.638306 1308.479248,405.512299 
z"/>
<path fill="#34C58F" opacity="1.000000" stroke="none" 
	d="
M1090.728760,501.860840 
	C1092.481445,521.241516 1099.990723,537.092468 1116.432373,548.110535 
	C1097.255859,557.890259 1077.837158,545.206665 1078.416748,523.935730 
	C1078.653931,515.235168 1082.031494,507.782074 1087.719116,501.323944 
	C1088.591675,500.333130 1089.916138,497.627991 1090.728760,501.860840 
z"/>
<path fill="#34C58F" opacity="1.000000" stroke="none" 
	d="
M2076.182373,548.051270 
	C2074.329102,547.184204 2072.777100,546.548157 2071.379883,545.666626 
	C2064.388428,541.256348 2063.588379,538.617493 2066.852539,531.187744 
	C2070.658691,522.524475 2074.463379,513.860535 2078.592529,504.459259 
	C2089.307373,518.074951 2093.248779,533.292480 2094.576416,550.969788 
	C2088.129639,549.967957 2082.342285,549.068604 2076.182373,548.051270 
z"/>
<path fill="#34C58F" opacity="1.000000" stroke="none" 
	d="
M772.001953,51.041103 
	C773.363647,57.433769 770.680664,61.835640 766.010193,65.095497 
	C755.633972,72.337822 743.590576,74.466850 730.078369,76.668266 
	C739.379883,64.970329 747.337280,53.917675 758.623474,45.998207 
	C763.694275,42.439987 768.489136,44.353626 772.001953,51.041103 
z"/>
<path fill="#32C48E" opacity="1.000000" stroke="none" 
	d="
M2343.926025,442.924438 
	C2343.947754,442.203644 2344.201172,441.677307 2344.918457,440.186798 
	C2344.918457,441.811371 2344.918457,442.378479 2344.772949,443.222412 
	C2344.470947,443.372467 2344.314209,443.245697 2343.926025,442.924438 
z"/>
<path fill="#32C48D" opacity="1.000000" stroke="none" 
	d="
M1510.583252,491.511475 
	C1510.487305,491.571960 1510.473022,491.313141 1510.473022,491.313141 
	C1510.473022,491.313141 1510.679199,491.450958 1510.583252,491.511475 
z"/>
<path fill="#33C58E" opacity="1.000000" stroke="none" 
	d="
M1309.077881,406.082581 
	C1308.952637,406.475616 1308.630005,406.676392 1308.307129,406.877136 
	C1308.256958,406.587769 1308.206787,406.298370 1308.317871,405.760620 
	C1308.613037,405.638306 1308.746826,405.764282 1309.077881,406.082581 
z"/>
</svg>