<svg xmlns="http://www.w3.org/2000/svg" version="1.1" xmlns:xlink="http://www.w3.org/1999/xlink" xmlns:svgjs="http://svgjs.dev/svgjs" width="2000" height="782" viewBox="0 0 2000 782"><g transform="matrix(1,0,0,1,-1.2121212121212466,1.1231171769058506)"><svg viewBox="0 0 396 155" data-background-color="#ffffff" preserveAspectRatio="xMidYMid meet" height="782" width="2000" xmlns="http://www.w3.org/2000/svg" xmlns:xlink="http://www.w3.org/1999/xlink"><g id="tight-bounds" transform="matrix(1,0,0,1,0.2400000000000091,-0.22261273966803685)"><svg viewBox="0 0 395.52 155.44522547933607" height="155.44522547933607" width="395.52"><g><svg viewBox="0 0 395.52 155.44522547933607" height="155.44522547933607" width="395.52"><g><svg viewBox="0 0 395.52 155.44522547933607" height="155.44522547933607" width="395.52"><g id="textblocktransform"><svg viewBox="0 0 395.52 155.44522547933607" height="155.44522547933607" width="395.52" id="textblock"><g><svg viewBox="0 0 395.52 155.44522547933607" height="155.44522547933607" width="395.52"><rect width="395.52" height="155.44522547933607" x="0" y="0" opacity="1" fill="#31c48d" data-fill-palette-color="tertiary"></rect><g transform="matrix(1,0,0,1,23.607599999999998,23.607599999999998)"><svg width="348.3048" viewBox="-0.35502248441799994 -40.15 185.185022484418 57.55" height="108.23002547933608" data-palette-color="#ffffff"><path d="M66.33-26.05Q68.75-31.45 70.6-34.23 72.45-37 74.08-37.58 75.7-38.15 76.28-38.15 76.85-38.15 76.85-38L76.85-38Q76.85-37.85 76.2-37.52 75.55-37.2 73.98-34.9 72.4-32.6 70-27.85 67.6-23.1 65.8-17.8L65.8-17.8Q68.85-17.8 69.67-18.1 70.5-18.4 70.67-18.2 70.85-18 70.2-17.55L70.2-17.55Q68.55-16.4 65.35-16.2L65.35-16.2Q65.3-16.1 64.55-13.8L64.55-13.8Q62.05-6.05 62.05-2.95L62.05-2.95Q62.05-1.2 62.68-0.5 63.3 0.2 64 0.2 64.7 0.2 65.55-0.4L65.55-0.4Q68.4-2.5 71.8-9.45L71.8-9.45Q72.2-10.3 72.58-10.15 72.95-10 72.55-9.1L72.55-9.1Q70.7-5.15 69.48-3.3 68.25-1.45 66.7 0.1L66.7 0.1Q64.65 2.05 62.6 2.05L62.6 2.05Q60.3 2.05 59.4 0.15L59.4 0.15Q58.95-0.75 58.95-1.5 58.95-2.25 58.98-3.08 59-3.9 59.15-5.23 59.3-6.55 59.88-8.53 60.45-10.5 60.78-11.53 61.1-12.55 61.75-14.3 62.4-16.05 62.45-16.2L62.45-16.2Q60.3-16.2 45.5-16.85L45.5-16.85Q42.45-7.75 35.9-0.55L35.9-0.55Q32.7 3 28.45 5.4L28.45 5.4Q22.75 8.55 16.45 8.55L16.45 8.55Q13.8 8.55 10.55 7.78 7.3 7 4.4 4.83 1.5 2.65 0.28-1.05-0.95-4.75 0.2-9.25L0.2-9.25Q0.8-11.55 2.88-13.55 4.95-15.55 6.3-15.6L6.3-15.6Q6.8-15.6 6.9-15.48 7-15.35 6.83-15.18 6.65-15 6.4-14.9L6.4-14.9Q4.9-14.25 3.3-12.05L3.3-12.05Q1.2-9.15 1.2-5.3L1.2-5.3Q1.2 0.7 7 3.65L7 3.65Q10.5 5.4 15.2 5.4L15.2 5.4Q17.25 5.4 19.05 5L19.05 5Q36 1.2 42.9-16.95L42.9-16.95Q41.6-16.95 40.38-16.38 39.15-15.8 38.78-15.8 38.4-15.8 38.35-16.1L38.35-16.1Q38.35-16.95 39.55-17.73 40.75-18.5 41.65-18.6L41.65-18.6 43.6-18.6Q46.8-26.6 50.9-34.8L50.9-34.8Q49.6-34.65 47.2-34.45 44.8-34.25 43.3-34.1 41.8-33.95 39.6-33.6 37.4-33.25 35.95-32.77 34.5-32.3 32.73-31.45 30.95-30.6 29.75-29.5L29.75-29.5Q26.9-26.8 25.7-22.9L25.7-22.9Q25.2-21.3 25.2-19.5 25.2-17.7 26.5-16 27.8-14.3 29.95-14.3L29.95-14.3Q34.2-14.3 36-19.2L36-19.2Q36.85-21.5 36.85-22.43 36.85-23.35 36.52-23.83 36.2-24.3 36.7-24.4L36.7-24.4Q37.05-24.45 37.3-24L37.3-24Q37.9-22.7 37.9-21.2 37.9-19.7 36.9-17.95L36.9-17.95Q35.2-14.85 32.3-13.8L32.3-13.8Q30.9-13.3 29.5-13.3 28.1-13.3 26.7-13.9L26.7-13.9Q24.05-15.05 22.8-17.8L22.8-17.8Q22-19.45 22-20.95 22-22.45 22.48-24.38 22.95-26.3 24.35-28.3 25.75-30.3 27.85-31.53 29.95-32.75 32.05-33.55 34.15-34.35 37.02-34.75 39.9-35.15 42.03-35.35 44.15-35.55 47.15-35.7 50.15-35.85 51.6-36L51.6-36Q52.15-36.95 53.28-38.33 54.4-39.7 55.2-39.93 56-40.15 56.45-40.15L56.45-40.15Q58.3-40.15 58.3-38.58 58.3-37 56.25-35.95 54.2-34.9 52.4-34.9L52.4-34.9Q51.05-32.3 48.58-25.63 46.1-18.95 45.95-18.6L45.95-18.6Q49.7-18.6 55.63-18.18 61.55-17.75 62.9-17.75L62.9-17.75Q63.9-20.65 66.33-26.05ZM55.8-38.6L55.8-38.6Q55.2-38.6 53.3-36.15L53.3-36.15Q56.55-36.65 56.5-37.9L56.5-37.9Q56.45-38.45 55.95-38.55L55.95-38.55Q55.9-38.6 55.8-38.6ZM78.75-19.45Q78.05-18.85 77.2-18.85 76.35-18.85 75.85-19.45 75.35-20.05 75.45-20.9L75.45-20.9Q75.6-21.75 76.3-22.35 77-22.95 77.85-22.95 78.7-22.95 79.22-22.35 79.75-21.75 79.6-20.9 79.45-20.05 78.75-19.45ZM73.85-1.1L73.85-1.1Q74.8-1.1 75.85-2.05L75.85-2.05Q77.7-3.9 80.55-9.6L80.55-9.6Q80.9-10.35 81.25-10.05L81.25-10.05Q81.35-9.95 81.35-9.73 81.35-9.5 80.95-8.63 80.55-7.75 80.22-7.05 79.9-6.35 78.97-4.78 78.05-3.2 77.3-2.35L77.3-2.35Q75.25 0 73.42 0 71.6 0 70.8-1.1 70-2.2 70-3.55 70-4.9 70.65-6.5L70.65-6.5 73.85-14.65Q73.95-14.95 73.95-15.45 73.95-15.95 73.35-16.75L73.35-16.75 76.1-16.8Q77.25-16.8 77.45-16.38 77.65-15.95 77.15-15.05L77.15-15.05 73.15-5.7Q72.3-3.85 72.3-2.55L72.3-2.55Q72.3-1.1 73.85-1.1ZM84.84-0.95L84.84-0.95Q85.5-0.85 85.75-0.85L85.75-0.85Q87.75-0.85 89.7-3.2L89.7-3.2Q90.75-4.5 93.45-9.75L93.45-9.75Q93.55-10 93.8-10L93.8-10Q94.25-10.05 94.25-9.65L94.25-9.65Q94.25-9.55 94.02-9.08 93.8-8.6 93.59-8.13 93.4-7.65 92.95-6.75 92.5-5.85 92.17-5.3 91.84-4.75 91.34-3.95 90.84-3.15 90.34-2.7L90.34-2.7 89.3-1.6Q88.45-0.75 87.3-0.4L87.3-0.4Q85.45 0.2 83.7-0.3L83.7-0.3Q82.55 0.2 81.65 0.2L81.65 0.2Q78.09 0.2 77.34-2.6L77.34-2.6Q77.2-3.25 77.2-4.17 77.2-5.1 77.82-5.95 78.45-6.8 79.15-6.85L79.15-6.85Q81.7-11.7 83.5-15.6L83.5-15.6Q85.5-19.85 88.15-19.85L88.15-19.85Q88.84-19.85 89.52-19.53 90.2-19.2 90.02-18.8 89.84-18.4 89.3-18.65 88.75-18.9 88.34-18.9 87.95-18.9 87.65-18.75L87.65-18.75Q85.95-17.95 85.95-15.3L85.95-15.3Q85.95-13.9 86.34-13 86.75-12.1 87.25-11.05L87.25-11.05Q88.4-8.45 88.4-6.8L88.4-6.8Q88.4-5.15 87.34-3.55 86.3-1.95 84.84-0.95ZM83.15-1.3L83.15-1.3Q85.34-3 85.34-6.8L85.34-6.8Q85.34-8.35 85-11.05 84.65-13.75 84.65-14.7 84.65-15.65 84.7-16L84.7-16Q80.9-8.4 80-6.75L80-6.75Q81.05-6.75 81.05-5.25L81.05-5.25Q81.05-2.3 83.15-1.3ZM79.4-2.65L79.4-2.65Q79.4-2.35 79.45-2L79.45-2Q79.84-0.65 81.3-0.65L81.3-0.65Q81.9-0.65 82.3-0.85L82.3-0.85Q80.45-2 80.3-4.6L80.3-4.6Q79.4-3.7 79.4-2.65ZM92.14-4L92.14-4Q92.14-8.15 96.14-17.9L96.14-17.9 93.54-17.9Q93.29-17.9 93.22-18.18 93.14-18.45 93.27-18.73 93.39-19 93.64-19L93.64-19 96.64-19Q98.44-22.95 99.99-25.6 101.54-28.25 102.84-29.18 104.14-30.1 104.72-30.1 105.29-30.1 105.54-30L105.54-30Q106.69-29.45 106.69-27.73 106.69-26 105.54-23.55 104.39-21.1 103.29-19L103.29-19 105.69-19Q105.94-19 106.02-18.73 106.09-18.45 105.97-18.18 105.84-17.9 105.59-17.9L105.59-17.9 102.69-17.9Q99.94-13.25 96.04-9.65L96.04-9.65 94.89-4.55Q94.74-3.9 94.74-3.28 94.74-2.65 95.09-2 95.44-1.35 96.19-1.35L96.19-1.35Q97.04-1.35 98.09-1.95L98.09-1.95Q100.49-3.75 103.39-9.5L103.39-9.5Q103.59-9.95 103.87-10.05 104.14-10.15 104.19-9.93 104.24-9.7 104.04-9.2L104.04-9.2Q102.39-5.75 101.44-4.3L101.44-4.3Q98.74 0.05 95.69 0.05L95.69 0.05Q94.14 0.05 93.14-1.1 92.14-2.25 92.14-4ZM99.69-19L102.19-19Q105.49-24.9 105.49-27.2L105.49-27.2Q105.49-28.2 105.14-28.2L105.14-28.2Q104.59-28.2 103.47-26.6 102.34-25 99.69-19L99.69-19ZM101.54-17.9L101.54-17.9 99.19-17.9Q98.59-16.5 96.49-11.25L96.49-11.25Q99.19-14.05 101.54-17.9ZM112.49-17.5L112.49-17.5Q116.14-17.5 116.14-12.9L116.14-12.9Q116.14-10.8 115.04-8.4L115.04-8.4Q113.64-5.15 110.84-2.5L110.84-2.5Q111.49-1.25 113.19-1.25L113.19-1.25Q114.54-1.25 115.74-2.6L115.74-2.6Q117.24-4.15 117.89-5.33 118.54-6.5 118.84-7.05 119.14-7.6 119.62-8.63 120.09-9.65 120.19-9.88 120.29-10.1 120.54-10.1L120.54-10.1Q121.04-10.15 121.04-9.75L121.04-9.75Q121.04-9.6 120.94-9.4L120.94-9.4 120.64-8.7Q120.34-8 120.19-7.7 120.04-7.4 119.67-6.63 119.29-5.85 119.02-5.4 118.74-4.95 118.27-4.2 117.79-3.45 117.42-3 117.04-2.55 116.49-2 115.94-1.45 115.44-1.15L115.44-1.15Q114.19-0.4 113.09-0.4L113.09-0.4Q111.04-0.4 109.89-1.7L109.89-1.7Q107.59 0 105.64 0L105.64 0Q101.99 0 101.99-4.6L101.99-4.6Q101.99-6.7 103.09-9.1L103.09-9.1Q104.59-12.6 107.32-15.05 110.04-17.5 112.49-17.5ZM113.04-15.95L113.04-15.95Q111.69-15.95 109.84-14.15 107.99-12.35 106.54-9.25L106.54-9.25Q104.79-5.65 104.79-3.35 104.79-1.05 106.54-1.05L106.54-1.05Q107.79-1.05 109.34-2.4L109.34-2.4Q108.54-3.55 108.54-4.85L108.54-4.85Q108.64-7 110.29-7L110.29-7Q110.94-7 111.37-6.55 111.79-6.1 111.79-5.73 111.79-5.35 111.69-4.95L111.69-4.95Q112.54-6.2 113.64-8.5L113.64-8.5Q114.89-11.05 114.89-13.5 114.89-15.95 113.04-15.95ZM126.99-19.45Q126.29-18.85 125.44-18.85 124.59-18.85 124.09-19.45 123.59-20.05 123.69-20.9L123.69-20.9Q123.84-21.75 124.54-22.35 125.24-22.95 126.09-22.95 126.94-22.95 127.46-22.35 127.99-21.75 127.84-20.9 127.69-20.05 126.99-19.45ZM122.09-1.1L122.09-1.1Q123.04-1.1 124.09-2.05L124.09-2.05Q125.94-3.9 128.79-9.6L128.79-9.6Q129.14-10.35 129.49-10.05L129.49-10.05Q129.59-9.95 129.59-9.73 129.59-9.5 129.19-8.63 128.79-7.75 128.46-7.05 128.14-6.35 127.21-4.78 126.29-3.2 125.54-2.35L125.54-2.35Q123.49 0 121.66 0 119.84 0 119.04-1.1 118.24-2.2 118.24-3.55 118.24-4.9 118.89-6.5L118.89-6.5 122.09-14.65Q122.19-14.95 122.19-15.45 122.19-15.95 121.59-16.75L121.59-16.75 124.34-16.8Q125.49-16.8 125.69-16.38 125.89-15.95 125.39-15.05L125.39-15.05 121.39-5.7Q120.54-3.85 120.54-2.55L120.54-2.55Q120.54-1.1 122.09-1.1ZM135.54-20.05L135.54-20.05Q135.54-17.8 132.69-15.8L132.69-15.8Q133.69-15.75 135.36-15.75 137.04-15.75 139.59-16L139.59-16Q139.69-15.85 139.69-15.2 139.69-14.55 139.09-13.28 138.49-12 138.01-11.08 137.54-10.15 137.11-9.33 136.69-8.5 136.16-7.3 135.64-6.1 135.29-5.1L135.29-5.1Q134.04-1.3 135.69-1.3L135.69-1.3Q137.79-1.3 141.89-9.65L141.89-9.65Q142.24-10.3 142.46-10.15 142.69-10 142.69-9.78 142.69-9.55 142.04-8.22 141.39-6.9 140.64-5.5 139.89-4.1 138.29-2.25L138.29-2.25Q136.39 0.05 134.64 0.05L134.64 0.05Q132.69 0.05 131.94-2.3L131.94-2.3Q131.79-2.75 131.79-3.65 131.79-4.55 132.36-6.05 132.94-7.55 134.19-9.7 135.44-11.85 135.59-12.23 135.74-12.6 135.74-12.95L135.74-12.95Q135.74-14.5 131.74-14.6L131.74-14.6 131.14-13Q127.99-4.75 125.09-1.95L125.09-1.95Q124.59-1.5 124.59-2.25L124.59-2.25Q124.59-2.4 124.69-2.6L124.69-2.6Q127.49-6.3 129.54-11.35 131.59-16.4 132.39-20.95L132.39-20.95Q132.69-22.5 133.79-22.5 134.89-22.5 135.39-21.1L135.39-21.1Q135.54-20.65 135.54-20.05ZM144.03-7.7L144.03-7.7Q143.33-6 143.33-3.9L143.33-3.9Q143.33-2.5 143.96-1.68 144.58-0.85 145.73-0.85L145.73-0.85Q150.28-0.85 153.98-9.4L153.98-9.4Q154.33-10.2 154.83-10.1L154.83-10.1Q155.03-10.05 155.03-9.85 155.03-9.65 153.91-7.23 152.78-4.8 151.63-3.3L151.63-3.3Q149.08 0.2 145.33 0.2L145.33 0.2Q143.33 0.2 141.93-1.1 140.53-2.4 140.53-4.65 140.53-6.9 141.61-9.43 142.68-11.95 144.53-14.13 146.38-16.3 148.78-17.3L148.78-17.3Q149.93-17.8 150.98-17.8 152.03-17.8 152.93-17.2L152.93-17.2Q153.78-16.5 153.78-15.65L153.78-15.65Q153.78-12.65 150.18-9.9L150.18-9.9Q149.08-9.05 147.08-8.38 145.08-7.7 144.03-7.7ZM152.43-15.7L152.43-15.7Q152.43-16.7 151.63-16.7L151.63-16.7Q150.23-16.7 147.38-13.25L147.38-13.25Q145.68-11.15 144.38-8.55L144.38-8.55Q145.23-8.55 146.86-9.15 148.48-9.75 149.68-10.75L149.68-10.75Q152.43-13.1 152.43-15.7ZM148.18 17.4L148.18 17.4Q145.43 17.4 145.43 14.65L145.43 14.65Q145.43 10.7 150.58-1.45L150.58-1.45Q149.98-2.45 149.98-3.1L149.98-3.1Q149.98-5.2 150.93-5.9L150.93-5.9Q151.63-6.5 152.11-6.5 152.58-6.5 152.73-6.45L152.73-6.45Q158.43-19.3 162.98-27.8L162.98-27.8Q163.88-29.6 164.83-30.45 165.78-31.3 167.23-31.3L167.23-31.3Q167.43-31.3 168.23-31.15 169.03-31 169.43-31.05L169.43-31.05Q167.08-28.85 162.83-21.35 158.58-13.85 154.78-5.3L154.78-5.3Q155.93-3.9 156.38-1.55L156.38-1.55 156.53-0.9Q156.63-0.9 156.68-0.9L156.68-0.9Q158.03-0.9 159.53-2.48 161.03-4.05 161.98-5.73 162.93-7.4 163.53-8.68 164.13-9.95 164.28-10.05 164.43-10.15 164.56-10.13 164.68-10.1 164.78-10.03 164.88-9.95 164.88-9.78 164.88-9.6 164.78-9.4L164.78-9.4Q160.63 0.05 156.63 0.05L156.63 0.05Q156.68 0.85 156.68 2.68 156.68 4.5 155.78 8.1 154.88 11.7 152.76 14.55 150.63 17.4 148.18 17.4ZM148.13 14.65L148.13 14.65Q148.13 16.1 148.93 16.1L148.93 16.1Q149.88 16.1 151.56 13.88 153.23 11.65 154.41 7.78 155.58 3.9 155.58 0.75L155.58 0.75Q155.58 0.5 155.58 0.25L155.58 0.25Q155.33 0.25 155.13 0.25L155.13 0.25Q153.68 0.25 152.68-0.55L152.68-0.55Q148.13 10.95 148.13 14.65ZM155.18-0.7L155.18-0.7 155.48-0.7Q155.33-2.85 154.28-4.15L154.28-4.15 153.18-1.65Q153.68-0.7 155.18-0.7ZM157.08 15.8L157.08 15.8Q154.88 15.8 153.68 14.88 152.48 13.95 152.48 12.65 152.48 11.35 153.23 9.7L153.23 9.7Q154.53 7.15 157.93 5.6L157.93 5.6Q160.48 4.4 164.68 3.38 168.88 2.35 170.08 2L170.08 2Q171.88-1.15 174.38-9.25L174.38-9.25Q171.48-4.15 169.53-2.1 167.58-0.05 165.58-0.05L165.58-0.05Q162.88-0.05 162.43-2.3L162.43-2.3Q162.23-2.65 162.33-3.35 162.43-4.05 162.45-4.35 162.48-4.65 162.78-5.33 163.08-6 163.18-6.3L163.18-6.3Q163.73-7.45 164.13-8.1L164.13-8.1Q163.33-8.1 163.68-8.9L163.68-8.9 164.58-10.65Q166.28-13.9 167.38-16.15L167.38-16.15Q167.88-17.2 169.33-17.2L169.33-17.2 172.38-17.2Q172.28-17.1 171.88-16.8L171.88-16.8Q170.98-16.2 170.53-15.4L170.53-15.4Q168.73-12.3 166.03-6.55L166.03-6.55Q164.93-4.2 164.93-3.1 164.93-2 165.3-1.55 165.68-1.1 166.33-1.1L166.33-1.1Q167.28-1.1 168.98-3.1L168.98-3.1Q172.53-7.25 176.83-16.15L176.83-16.15Q177.38-17.2 178.78-17.2L178.78-17.2 181.48-17.2Q180.18-16.3 179.43-14.93 178.68-13.55 177.8-11.2 176.93-8.85 175.6-4.95 174.28-1.05 173.58 0.9L173.58 0.9Q178.28-0.5 180.78-4.05L180.78-4.05Q181.88-5.6 183.93-9.55L183.93-9.55Q184.28-10.25 184.55-10.1 184.83-9.95 184.83-9.7 184.83-9.45 184-7.78 183.18-6.1 182.33-4.67 181.48-3.25 180.13-1.75 178.78-0.25 177.13 0.63 175.48 1.5 172.73 2.5L172.73 2.5Q168.88 9.5 164.98 12.8L164.98 12.8Q161.33 15.8 157.08 15.8ZM154.18 10.85L154.18 10.85Q153.63 11.95 153.63 12.88 153.63 13.8 154.33 14.3 155.03 14.8 156.08 14.8L156.08 14.8Q158.98 14.8 162.28 11.83 165.58 8.85 168.08 5.45L168.08 5.45 169.18 3.6Q160.93 5.75 158.78 6.7L158.78 6.7Q155.58 8.1 154.18 10.85Z" opacity="1" transform="matrix(1,0,0,1,0,0)" fill="#ffffff" class="wordmark-text-0" data-fill-palette-color="quaternary" id="text-0"></path></svg></g></svg></g></svg></g></svg></g></svg></g><defs></defs></svg><rect width="395.52" height="155.44522547933607" fill="none" stroke="none" visibility="hidden"></rect></g></svg></g></svg>